<svg version="1.2" xmlns="http://www.w3.org/2000/svg" viewBox="0 0 32 32" width="32" height="32">
	<title>bell-svg</title>
	<style>
		.s0 { fill: none;stroke: #efeffc;stroke-linecap: round;stroke-linejoin: round;stroke-width: 2 } 
	</style>
	<path id="Layer" class="s0" d="m13.3 6.7c0-0.7 0.3-1.4 0.8-1.9 0.5-0.5 1.2-0.8 1.9-0.8 0.7 0 1.4 0.3 1.9 0.8 0.5 0.5 0.8 1.2 0.8 1.9 1.5 0.7 2.8 1.8 3.7 3.2 1 1.4 1.5 3.1 1.6 4.8v4c0.1 0.8 0.4 1.6 0.9 2.3 0.4 0.7 1 1.3 1.8 1.7h-21.4c0.8-0.4 1.4-1 1.8-1.7 0.5-0.7 0.8-1.5 0.9-2.3v-4c0.1-1.7 0.6-3.4 1.6-4.8 0.9-1.4 2.2-2.5 3.7-3.2z"/>
	<path id="Layer" class="s0" d="m20 22.7v1.3c0 1.1-0.4 2.1-1.2 2.8-0.7 0.8-1.7 1.2-2.8 1.2-1.1 0-2.1-0.4-2.8-1.2-0.8-0.7-1.2-1.7-1.2-2.8v-1.3"/>
</svg>