<svg version="1.2" xmlns="http://www.w3.org/2000/svg" viewBox="0 0 140 40" width="140" height="40">
	<title>logo-svg</title>
	<defs>
		<clipPath clipPathUnits="userSpaceOnUse" id="cp1">
			<path d="m0 0h140v40h-140z"/>
		</clipPath>
	</defs>
	<style>
		.s0 { fill: #ffffff } 
		.s1 { fill: #8cb1de } 
	</style>
	<g id="Clip-Path" clip-path="url(#cp1)">
		<g id="Layer">
			<path id="Layer" fill-rule="evenodd" class="s0" d="m47.5 25.8q-0.5 0-0.8-0.2-0.2-0.3-0.2-0.8v-9.5q0-0.5 0.2-0.7 0.3-0.3 0.8-0.3h3.2q2.8 0 4.4 1.5 1.5 1.5 1.5 4.3 0 2.7-1.5 4.2-1.6 1.5-4.4 1.5zm7.1-5.7q0-4.1-4-4.1h-2v8.1h2q4 0 4-4zm4.7 4.7q-1.1-1.1-1.1-3 0-1.2 0.5-2.2 0.4-0.9 1.3-1.4 0.9-0.5 2.1-0.5 1 0 1.8 0.4 0.8 0.5 1.3 1.4 0.4 0.8 0.4 2 0 0.7-0.6 0.7h-4.8q0.1 1.1 0.6 1.7 0.6 0.5 1.6 0.5 0.5 0 0.9-0.1 0.4-0.2 0.9-0.4 0.5-0.3 0.7-0.3 0.3 0 0.5 0.3 0.1 0.2 0.1 0.5 0 0.5-0.6 0.9-0.5 0.3-1.2 0.5-0.7 0.2-1.4 0.2-1.9 0-3-1.2zm4.1-5.2q-0.5-0.5-1.3-0.5-0.8 0-1.3 0.5-0.5 0.5-0.6 1.5h3.7q-0.1-1-0.5-1.5zm3.9 5.7q-0.5-0.4-0.5-0.9 0-0.4 0.1-0.6 0.2-0.2 0.5-0.2 0.3 0 0.8 0.3 0.5 0.2 0.9 0.4 0.4 0.1 1.1 0.1 0.7 0 1.1-0.2 0.4-0.3 0.4-0.7 0-0.2-0.2-0.4-0.1-0.2-0.5-0.3-0.4-0.1-1.3-0.3-1.4-0.3-2-0.9-0.7-0.5-0.7-1.4 0-0.8 0.5-1.3 0.4-0.6 1.1-0.9 0.8-0.3 1.7-0.3 0.7 0 1.3 0.1 0.7 0.2 1.2 0.5 0.5 0.3 0.5 0.9 0 0.3-0.2 0.5-0.2 0.3-0.4 0.3-0.2 0-0.4-0.1-0.2-0.1-0.4-0.2-0.5-0.3-0.8-0.4-0.4-0.1-0.9-0.1-0.6 0-0.9 0.2-0.4 0.3-0.4 0.7 0 0.4 0.4 0.6 0.3 0.2 1.4 0.4 1.1 0.3 1.7 0.5 0.6 0.3 0.9 0.8 0.2 0.4 0.2 1.1 0 1.1-0.9 1.8-0.9 0.7-2.4 0.7-1.8 0-2.9-0.7zm8-9.4q-0.3-0.3-0.3-0.8 0-0.4 0.3-0.7 0.3-0.3 0.9-0.3 0.5 0 0.9 0.3 0.3 0.3 0.3 0.7 0 0.5-0.3 0.8-0.4 0.3-0.9 0.3-0.6 0-0.9-0.3zm0.2 9.8q-0.3-0.3-0.3-0.8v-6.3q0-0.4 0.3-0.7 0.3-0.2 0.7-0.2 0.4 0 0.7 0.2 0.3 0.3 0.3 0.7v6.3q0 0.5-0.3 0.8-0.3 0.2-0.7 0.2-0.4 0-0.7-0.2zm4.5 2.5q-0.6-0.3-0.6-0.8 0-0.4 0.2-0.6 0.1-0.2 0.4-0.2 0.2 0 0.4 0 0.2 0.1 0.4 0.2 0.6 0.3 1.1 0.4 0.4 0.1 1 0.1 2.2 0 2.2-2.1v-1q-0.4 0.7-1.1 1-0.7 0.4-1.5 0.4-1.1 0-1.9-0.5-0.8-0.5-1.3-1.4-0.4-0.9-0.4-2.1 0-1.1 0.4-2 0.5-1 1.3-1.5 0.8-0.4 1.9-0.4 0.8 0 1.5 0.3 0.7 0.4 1.1 1.1v-0.5q0-0.4 0.2-0.7 0.3-0.2 0.8-0.2 0.4 0 0.7 0.2 0.3 0.3 0.3 0.7v6.5q0 1.9-1.1 2.8-1 1-3 1-1.8 0-3-0.7zm4.5-4.8q0.6-0.7 0.6-1.8 0-1.1-0.6-1.7-0.5-0.7-1.5-0.7-1 0-1.5 0.7-0.6 0.6-0.6 1.7 0 1.1 0.6 1.8 0.5 0.6 1.5 0.6 1 0 1.5-0.6zm10.4 2.3q-0.3-0.3-0.3-0.8v-3.9q0-0.9-0.3-1.3-0.4-0.4-1.1-0.4-0.9 0-1.4 0.5-0.6 0.6-0.6 1.5v3.6q0 0.5-0.2 0.8-0.3 0.2-0.8 0.2-0.5 0-0.7-0.2-0.3-0.3-0.3-0.8v-6.3q0-0.4 0.3-0.7 0.3-0.2 0.7-0.2 0.4 0 0.7 0.2 0.3 0.3 0.3 0.7v0.4q0.4-0.6 1.1-1 0.7-0.3 1.5-0.3 1.5 0 2.2 0.8 0.7 0.8 0.7 2.4v4q0 0.5-0.3 0.8-0.3 0.2-0.7 0.2-0.5 0-0.8-0.2zm9.5 0.1q-0.5 0-0.8-0.2-0.3-0.3-0.3-0.8v-9.5q0-0.5 0.3-0.7 0.3-0.3 0.8-0.3h3.2q2.8 0 4.4 1.5 1.5 1.5 1.5 4.3 0 2.7-1.5 4.2-1.6 1.5-4.4 1.5zm7-5.7q0-4.1-3.9-4.1h-2v8.1h2q3.9 0 3.9-4zm5.2 5.5q-0.7-0.3-1-0.9-0.4-0.5-0.4-1.2 0-0.9 0.4-1.4 0.5-0.5 1.5-0.8 1-0.2 2.8-0.2h0.4v-0.4q0-0.8-0.4-1.1-0.3-0.4-1.1-0.4-0.4 0-0.9 0.1-0.5 0.2-1.2 0.4-0.4 0.3-0.6 0.3-0.3 0-0.5-0.3-0.2-0.2-0.2-0.5 0-0.3 0.2-0.5 0.1-0.2 0.4-0.4 0.6-0.3 1.4-0.5 0.8-0.1 1.6-0.1 1.6 0 2.4 0.8 0.8 0.8 0.8 2.5v4q0 0.4-0.2 0.7-0.3 0.2-0.7 0.2-0.5 0-0.7-0.3-0.3-0.2-0.3-0.6v-0.4q-0.3 0.6-0.9 1-0.6 0.4-1.4 0.4-0.8 0-1.4-0.4zm3.2-1.7q0.5-0.5 0.5-1.4v-0.3h-0.3q-1.1 0-1.7 0.1-0.6 0.1-0.9 0.3-0.2 0.3-0.2 0.7 0 0.5 0.3 0.9 0.4 0.3 0.9 0.3 0.9 0 1.4-0.6zm4.6-8q-0.3-0.3-0.3-0.8 0-0.4 0.3-0.7 0.4-0.3 0.9-0.3 0.6 0 0.9 0.3 0.3 0.3 0.3 0.7 0 0.5-0.3 0.8-0.3 0.3-0.9 0.3-0.5 0-0.9-0.3zm0.2 9.8q-0.3-0.3-0.3-0.8v-6.3q0-0.4 0.3-0.7 0.3-0.2 0.7-0.2 0.5 0 0.7 0.2 0.3 0.3 0.3 0.7v6.3q0 0.5-0.3 0.8-0.2 0.2-0.7 0.2-0.4 0-0.7-0.2zm4.1 0q-0.3-0.3-0.3-0.8v-9.7q0-0.5 0.3-0.7 0.3-0.3 0.8-0.3 0.4 0 0.7 0.3 0.3 0.2 0.3 0.7v9.7q0 0.5-0.3 0.8-0.3 0.2-0.7 0.2-0.5 0-0.8-0.2zm5.2 2.9q-0.3-0.2-0.3-0.6 0-0.2 0.1-0.4l1.1-2.3-3-6.3q-0.1-0.2-0.1-0.4 0-0.4 0.3-0.7 0.3-0.2 0.7-0.2 0.3 0 0.5 0.1 0.3 0.2 0.4 0.5l2.3 5 2.3-5q0.1-0.3 0.3-0.5 0.2-0.1 0.5-0.1 0.4 0 0.7 0.3 0.3 0.2 0.3 0.6 0 0.2-0.1 0.4l-4.5 9.3q-0.3 0.5-0.9 0.5-0.3 0-0.6-0.2z"/>
			<path id="Layer" fill-rule="evenodd" class="s1" d="m2.2 7.7c5.3-9 19.1-9.5 28.2-4.2 9.1 5.2 12.2 16.8 6.9 25.9-5.2 9.1-17.4 13.4-26.5 8.1-9.1-5.2-13.8-20.7-8.6-29.8zm19.8 5.6q-0.5 0-0.8 0.4-0.3 0.2-0.4 0.7v0.2 7.1q0 1.7-0.8 2.6-0.8 0.9-2.4 0.9-1.6 0-2.4-0.9-0.8-0.8-0.9-2.4v-0.2-7.1q0-0.6-0.3-0.9-0.3-0.4-0.9-0.4-0.5 0-0.9 0.4-0.2 0.2-0.3 0.7v0.2 6.9q0 2.8 1.4 4.2 1.5 1.5 4.3 1.5 2.8 0 4.2-1.5 1.4-1.3 1.5-3.9v-0.3-6.9q0-0.6-0.4-0.9-0.3-0.4-0.9-0.4zm5.3 0q-0.5 0-0.9 0.4-0.2 0.2-0.3 0.7v0.2 11.3q0 0.5 0.3 0.9 0.4 0.3 0.9 0.3 0.6 0 1-0.3 0.3-0.3 0.3-0.8v-0.1-11.3q0-0.6-0.3-0.9-0.4-0.4-1-0.4z"/>
		</g>
	</g>
</svg>